{"title":"Shrek.Forever.After.2010.R5.MKV.AC3..vice","uid":5963380,"size":613260822,"categoryP":"video","categoryS":"movies","magnet":"?xt=urn:btih:26e97bf0914b841abeef1d674a86006640c9925c&amp;dn=Shrek.Forever.After.2010.R5.MKV.AC3..vice&amp;tr=udp%3A%2F%2Ftracker.openbittorrent.com%3A80&amp;tr=udp%3A%2F%2Fopen.demonii.com%3A1337&amp;tr=udp%3A%2F%2Ftracker.coppersurfer.tk%3A6969&amp;tr=udp%3A%2F%2Fexodus.desync.com%3A6969","seeders":0,"leechers":0,"uploader":"vicerock","files":-1,"time":1290025998,"description":"Format : Matroska\nFile size : 576 MiB\nDuration : 1h 29mn\nOverall bit rate : 902 Kbps\nEncoded date : UTC 2010-11-17 19:08:37\nWriting application : mkvmerge v2.4.0 ('Fumbling Towards Ecstasy') built on Oct 11 2008 20:13:15\nWriting library : libebml v0.7.7 + libmatroska v0.8.1\n\nVideo\nID : 1\nFormat : AVC\nFormat/Info : Advanced Video Codec\nFormat profile : &lt;a class=&quot;__cf_email__&quot; href=&quot;/cdn-cgi/l/email-protection&quot; data-cfemail=&quot;1a587b697f7673747f5a5628342b&quot;&gt;[email&amp;#160;protected]&lt;/a&gt;&lt;script cf-hash='f9e31' type=&quot;text/javascript&quot;&gt;\n/* &lt;![CDATA[ */!function(){try{var t=&quot;currentScript&quot;in document?document.currentScript:function(){for(var t=document.getElementsByTagName(&quot;script&quot;),e=t.length;e--;)if(t[e].getAttribute(&quot;cf-hash&quot;))return t[e]}();if(t&amp;&amp;t.previousSibling){var e,r,n,i,c=t.previousSibling,a=c.getAttribute(&quot;data-cfemail&quot;);if(a){for(e=&quot;&quot;,r=parseInt(a.substr(0,2),16),n=2;a.length-n;n+=2)i=parseInt(a.substr(n,2),16)^r,e+=String.fromCharCode(i);e=document.createTextNode(e),c.parentNode.replaceChild(e,c)}}}catch(u){}}();/* ]]&gt; */&lt;/script&gt;\nFormat settings, CABAC : No\nFormat settings, ReFrames : 1 frame\nMuxing mode : Container profile=&lt;a class=&quot;__cf_email__&quot; href=&quot;/cdn-cgi/l/email-protection&quot; data-cfemail=&quot;590c373237362e37196b7768&quot;&gt;[email&amp;#160;protected]&lt;/a&gt;&lt;script cf-hash='f9e31' type=&quot;text/javascript&quot;&gt;\n/* &lt;![CDATA[ */!function(){try{var t=&quot;currentScript&quot;in document?document.currentScript:function(){for(var t=document.getElementsByTagName(&quot;script&quot;),e=t.length;e--;)if(t[e].getAttribute(&quot;cf-hash&quot;))return t[e]}();if(t&amp;&amp;t.previousSibling){var e,r,n,i,c=t.previousSibling,a=c.getAttribute(&quot;data-cfemail&quot;);if(a){for(e=&quot;&quot;,r=parseInt(a.substr(0,2),16),n=2;a.length-n;n+=2)i=parseInt(a.substr(n,2),16)^r,e+=String.fromCharCode(i);e=document.createTextNode(e),c.parentNode.replaceChild(e,c)}}}catch(u){}}();/* ]]&gt; */&lt;/script&gt;\nCodec ID : V_MPEG4/ISO/AVC\nDuration : 1h 29mn\nBit rate : 756 Kbps\nNominal bit rate : 768 Kbps\nWidth : 640 pixels\nHeight : 360 pixels\nDisplay aspect ratio : 16:9\nFrame rate : 25.000 fps\nResolution : 24 bits\nColorimetry : 4:2:0\nScan type : Progressive\nBits/(Pixel*Frame) : 0.131\nStream size : 483 MiB (84%)\nWriting library : x264 core 67 r1163+17 7d945df\n\nAudio\nID : 2\nFormat : AC-3\nFormat/Info : Audio Coding 3\nCodec ID : A_AC3\nDuration : 1h 29mn\nBit rate mode : Constant\nBit rate : 128 Kbps\nChannel(s) : 6 channels\nChannel positions : Front: L C R, Surround: L R, LFE\nSampling rate : 44.1 KHz\nStream size : 81.8 MiB (14%)\n\nThe film begins just before Shrek (Mike Myers) rescues Princess Fiona (Cameron Diaz) in the first film. Desperate to lift their daughter's curse, King Harold (John Cleese) and Queen Lillian (Julie Andrews) meet with con artist Rumpelstiltskin (Walt Dohrn), who requests becoming king of Far Far Away in exchange. Just before the deal is contracted, the king and queen learn that Fiona has already been rescued. In the present, a disgruntled Rumpelstiltskin wishes Shrek was never born and seeks revenge.\n &lt;a href=&quot;\nhttp://www.imdb.com/title/tt0892791/&quot; rel=&quot;nofollow&quot; target=&quot;_NEW&quot;&gt;\nhttp://www.imdb.com/title/tt0892791/&lt;/a&gt;\n\nscreens\n &lt;a href=&quot;\nhttp://img87.imageshack.us/img87/73/shrek4mkvvicemkvsnapsho.jpg&quot; rel=&quot;nofollow&quot; target=&quot;_NEW&quot;&gt;\nhttp://img87.imageshack.us/img87/73/shrek4mkvvicemkvsnapsho.jpg&lt;/a&gt; &lt;a href=&quot;\nhttp://img819.imageshack.us/img819/73/shrek4mkvvicemkvsnapsho.jpg&quot; rel=&quot;nofollow&quot; target=&quot;_NEW&quot;&gt;\nhttp://img819.imageshack.us/img819/73/shrek4mkvvicemkvsnapsho.jpg&lt;/a&gt; &lt;a href=&quot;\nhttp://img94.imageshack.us/img94/73/shrek4mkvvicemkvsnapsho.jpg&quot; rel=&quot;nofollow&quot; target=&quot;_NEW&quot;&gt;\nhttp://img94.imageshack.us/img94/73/shrek4mkvvicemkvsnapsho.jpg&lt;/a&gt; &lt;a href=&quot;\nhttp://img576.imageshack.us/img576/73/shrek4mkvvicemkvsnapsho.jpg&quot; rel=&quot;nofollow&quot; target=&quot;_NEW&quot;&gt;\nhttp://img576.imageshack.us/img576/73/shrek4mkvvicemkvsnapsho.jpg&lt;/a&gt;","torrent":{"xt":"urn:btih:26e97bf0914b841abeef1d674a86006640c9925c","amp;dn":"Shrek.Forever.After.2010.R5.MKV.AC3..vice","amp;tr":["udp%3A%2F%2Ftracker.openbittorrent.com%3A80","udp%3A%2F%2Fopen.demonii.com%3A1337","udp%3A%2F%2Ftracker.coppersurfer.tk%3A6969","udp%3A%2F%2Fexodus.desync.com%3A6969"],"infoHash":"26e97bf0914b841abeef1d674a86006640c9925c","infoHashBuffer":{"type":"Buffer","data":[38,233,123,240,145,75,132,26,190,239,29,103,74,134,0,102,64,201,146,92]},"announce":[],"urlList":[]}}